<svg version="1.2" xmlns="http://www.w3.org/2000/svg" viewBox="0 0 23 26" width="23" height="26"><style>.a{fill:#41c9b4}</style><path fill-rule="evenodd" d="m57.9 7.4c4.4 0 7.8 3.3 7.8 7.5 0 4.3-3.4 7.6-7.8 7.6-4.5 0-7.8-3.3-7.8-7.6 0-4.2 3.3-7.5 7.8-7.5zm34 0.1c4.8 0 7 3.7 7 7.8q0 0.4 0 0.8 0 0.2-0.3 0.3h-9.8c0.4 1.7 1.6 2.8 3.6 2.8 1.1 0 2.1-0.3 3.3-1.3q0.2-0.1 0.3 0h0.1l1.9 1.7q0.2 0.2 0 0.4c-1.4 1.7-3.3 2.5-5.7 2.5-4.4 0-7.5-3.1-7.5-7.5 0-4.1 2.9-7.5 7.1-7.5zm-16-3.5q0.3 0.1 0.3 0.3v3.5h3.1q0.3 0 0.3 0.2v2.9q0 0.3-0.3 0.3h-3.1v6.3q0 1.4 1.3 1.4c0.6 0 1.1-0.1 1.7-0.4 0.2-0.1 0.4 0 0.4 0.2v2.7q0 0.2-0.2 0.3c-0.8 0.5-1.8 0.8-3.1 0.8-2.2 0-3.8-0.8-4.1-3.4q0-0.1 0-0.3 0-0.1-0.1-0.2 0-0.2 0-0.3 0-0.2 0-0.3v-6.8h-1.4q-0.3 0-0.3-0.3v-2.9q0-0.2 0.3-0.3h1.4v-3.4q0-0.2 0.3-0.3c0 0 3.5 0 3.5 0zm-36 3.4c2.6 0 4.3 1.5 4.8 3.9q0.1 0.7 0.1 1.7v8.9q0 0.2-0.3 0.2h-3.5q-0.3 0-0.3-0.2v-7.9c0-1.9-0.9-2.9-2.4-2.9-1.6 0-2.6 1-2.6 2.9v7.9q0 0.2-0.3 0.2h-3.5q-0.3 0-0.3-0.2v-13.9q0-0.2 0.3-0.3h3.5q0.3 0.1 0.3 0.3v1.7c1.4-1.8 3-2.3 4.2-2.3zm18 3.5c-2.3 0-3.8 1.9-3.8 4 0 2.2 1.5 4.1 3.8 4.1 2.3 0 3.8-1.9 3.8-4.1 0-2.1-1.5-4-3.8-4zm34-0.2c-1.6 0-2.7 1.1-3.1 3l-0.1 0.1h6.2c-0.2-1.8-1.2-3.1-3-3.1z"/><path fill-rule="evenodd" class="a" d="m6.4 1.7c0.4-0.4 0.9-0.6 1.5-0.7q0 0 0.1 0 0 0 0.1 0 0 0 0.1 0 0 0 0 0h12.5q0.1 0 0.1 0 0.1 0 0.1 0 0.1 0 0.1 0 0.1 0 0.1 0c0.7 0.1 1.3 0.7 1.3 1.3 0 0.1 0 0.2 0 0.4v20.8c0 0.2 0 0.3 0 0.4 0 0.6-0.6 1.2-1.3 1.3-0.1 0-0.2 0-0.4 0h-18c-0.2 0-0.3 0-0.4 0-0.6-0.1-1.2-0.7-1.3-1.3 0-0.1 0-0.2 0-0.4v-15.2q0-0.1 0-0.1 0-0.1 0-0.1 0-0.1 0-0.1 0-0.1 0-0.1c0.1-0.6 0.3-1.1 0.7-1.5zm13 2.3h-10.7q0 0-0.1 0-0.1 0-0.1 0.1-0.1 0-0.1 0-0.1 0-0.1 0.1l-4 4q-0.2 0.1-0.2 0.4v13.5h15.3zm-9.1 7.6h-2.9c-0.3 0-0.4 0-0.6-0.1-0.5-0.1-0.8-0.6-0.8-1.1 0-0.6 0.3-1.1 0.8-1.2 0.2 0 0.3-0.1 0.6-0.1h1.9v-1.8c0-0.4 0-0.5 0-0.6 0.2-0.5 0.6-0.9 1.2-0.9 0.5 0 1 0.4 1.1 0.9 0.1 0.1 0.1 0.2 0.1 0.6v2.8q0 0.3 0 0.5-0.1 0.2-0.1 0.4-0.1 0.1-0.3 0.2-0.1 0.1-0.2 0.2-0.2 0.1-0.3 0.2-0.3 0-0.5 0z"/></svg>